<svg class="svg-icon w-16 h-16" viewBox="0 0 512 512" xmlns="http://www.w3.org/2000/svg" fill="#7b7beb">
  <title>Telegram icon</title>
  <defs>
    <linearGradient id="linearGradient" x1="0%" y1="0%" x2="100%" y2="0%">
      <stop offset="0%" style="stop-color:#f864bd;stop-opacity:1;" />
      <stop offset="85%" style="stop-color:#7b7beb;stop-opacity:1;" />
    </linearGradient>
  </defs>
  <circle class="icon-path" cx="256" cy="256" r="256"/>
  <path class="icon-path" d="M34.133 256C34.133 120.352 139.641 9.364 273.066.579A260 260 0 0 0 256 0C114.615 0 0 114.615 0 256s114.615 256 256 256c5.737 0 11.424-.208 17.067-.579C139.642 502.636 34.133 391.648 34.133 256"/>
  <path style="fill:#e5e5e5" d="M380.263 109.054a8.54 8.54 0 0 0-8.399-.679L96.777 236.433a13.47 13.47 0 0 0-7.766 12.501c.117 5.226 3.28 9.92 8.065 12.015l253.613 110.457c8.468 3.849 18.439-2.21 18.983-11.453l14.314-243.341a8.54 8.54 0 0 0-3.723-7.558"/>
  <path style="fill:#ccc" d="M171.631 293.421 188.772 408l190.396-299.568z"/>
  <path style="fill:#fff" d="M371.866 108.375 96.777 236.433c-4.737 2.205-7.826 7.121-7.769 12.345.058 5.233 3.276 10.074 8.067 12.171l74.557 32.471 207.536-184.988a8.53 8.53 0 0 0-7.302-.057"/>
  <path style="fill:#e5e5e5" d="M211.418 310.749 188.772 408l190.396-299.568z"/>
  <path style="fill:#fff" d="M380.263 109.054a8.4 8.4 0 0 0-1.095-.622l-167.75 202.317 139.27 60.657c8.468 3.849 18.439-2.21 18.983-11.453l14.314-243.341a8.53 8.53 0 0 0-3.722-7.558"/>
</svg>