<svg width="64" height="64" viewBox="0 0 512 512" xmlns="http://www.w3.org/2000/svg">
  <title>Discord icon</title>
  <circle fill="#7b7beb" cx="256" cy="256" r="256"/>
  <path fill="#7b7beb" d="M256 0c-11.317 0-22.461.744-33.391 2.167C348.216 18.53 445.217 125.933 445.217 256s-97.002 237.47-222.609 253.833A259 259 0 0 0 256 512c141.385 0 256-114.616 256-256S397.385 0 256 0"/>
  <path style="fill:#fff" d="m417.824 114.172-1.264-3.206a.4.4 0 0 0-.199-.209l-3.138-1.425c-25.832-11.733-62.269-14.628-94.507-15.911h-36.31c-.41 0-.535.554-.166.731l74.584 35.757c.421.201.188.827-.264.709-33.543-8.76-67.429-13.194-100.89-13.194-33.353 0-67.129 4.407-100.569 13.111-.455.118-.686-.515-.259-.712l77.201-35.667c.374-.173.252-.733-.161-.733h-39.257c-32.237 1.283-68.676 4.178-94.507 15.911l-3.138 1.425a.38.38 0 0 0-.199.209l-1.264 3.206C67.081 181.16 59.569 294.879 67.58 366.12l.42 3.736 2.972 2.305c41.298 32.024 96.519 48.489 131.258 52.858l4.492.565a3.176 3.176 0 0 0 3.371-2.038l22.61-60.407a3.176 3.176 0 0 0-2.481-4.251l-6.938-1.09c-24.193-3.801-58.47-13.877-87.437-40.147-.618-.561-.022-1.569.76-1.279 2.354.875 4.95 1.889 7.623 2.933 6.55 2.559 13.324 5.205 17.744 6.255 31.064 7.386 62.565 11.132 93.694 11.132v-.554h.065l.004.554c31.066 0 62.566-3.745 93.627-11.132 4.422-1.051 11.196-3.696 17.747-6.256a499 499 0 0 1 7.619-2.932c.782-.29 1.378.719.76 1.279-28.87 26.154-63.19 36.204-87.437 40.002l-6.936 1.086a3.175 3.175 0 0 0-2.484 4.248l22.614 60.556a3.176 3.176 0 0 0 3.371 2.04l4.496-.565c34.737-4.369 89.954-20.834 131.253-52.858l2.972-2.305.42-3.736c8.012-71.24.5-184.96-25.935-251.947m-235.95 164.462c-28.083 2.504-51.512-20.923-49.011-49.006 1.918-21.527 19.252-38.863 40.78-40.783 28.083-2.504 51.512 20.923 49.011 49.006-1.919 21.527-19.253 38.863-40.78 40.783m155.826 0c-28.083 2.504-51.512-20.923-49.011-49.006 1.918-21.527 19.252-38.863 40.78-40.783 28.082-2.504 51.512 20.923 49.011 49.006-1.919 21.527-19.253 38.863-40.78 40.783"/>
</svg>